<?xml version="1.0" encoding="utf-8"?><svg viewBox="0 0 529.4 141" xmlns="http://www.w3.org/2000/svg" xmlns:xlink="http://www.w3.org/1999/xlink"><style>:root>svg{display:none}:root>svg:target{display:block}</style><svg viewBox="0 0 529.4 92.7" id="12Storeez" xmlns="http://www.w3.org/2000/svg"><path d="M527.9 27.6h-48.4v22.5h.6c0-8.9 4.5-21.9 19.4-21.9H516l-37.2 61.5v.4h50.5V66.7h-.6c0 9.8-4.5 22.8-19.4 22.8h-19L527.9 28v-.4zm-90 30.8c13.5 0 14.8 7.2 14.8 16.9h.6V40.9h-.6c0 9.5-1.3 16.9-13.9 16.9h-2.1V28.2h11c14.9 0 19.4 13 19.4 21.9h.6V27.6h-50.3v.6h8.9v61.4h-8.9v.6h51.2V66.7h-.6c0 9.8-4.5 22.8-19.4 22.8h-11.9V58.4h1.2zm-61 0c13.5 0 14.9 7.2 14.9 16.9h.6V40.9h-.6c0 9.5-1.3 16.9-13.9 16.9h-2.1V28.2h11c14.9 0 19.4 13 19.4 21.9h.6V27.6h-50.3v.6h9v61.4h-9v.6h51.2V66.7h-.7c0 9.8-4.5 22.8-19.4 22.8h-11.9V58.4h1.2zm-58.7-30.2c8.9 0 12.4 6.5 12.4 15.5 0 8.9-3.5 15.6-12.4 15.6h-11.1v-31h11.1v-.1zm32.9 52.4h-.5c-1.7 7.9-4.6 8.7-6 8.7-9.6 0 2.3-28.1-22.1-29.8 11.9-1.1 18.4-6.7 18.4-15.8 0-10.6-8.1-16.1-22.7-16.1h-30.3v.6h8.9v61.4h-8.9v.6H316v-.6h-8.9V59.7h11.8c17.7 0 2.7 31.7 20.5 31.7 4.5-.1 9.8-1 11.7-10.8m-102.4 11c-16.4 0-19.9-11.9-19.9-32.5s3.5-32.5 19.9-32.5 19.9 11.9 19.9 32.5-3.5 32.5-19.9 32.5m0-65.6c-17.2 0-31.1 14-31.1 33.1s13.9 33.1 31.1 33.1 31.1-14 31.1-33.1S265.9 26 248.7 26m-58.3 2.2c14.9 0 19.4 13 19.4 23.7h.6V27.6h-51.5v24.3h.6c0-10.7 4.5-23.7 19.4-23.7h.6v61.4h-8.9v.6h28.2v-.6h-8.9V28.2h.5zm-69.3 63.7c-17.2 0-28.6-17.2-28.6-36.1h-1v34.3h15.6c4.2 1.6 8.9 2.5 14 2.5 20.5 0 30-14.2 30-28 0-32.3-50.7-21.1-50.7-47 0-8.4 8.2-17 19.2-17 18 0 24.8 16.2 24.8 32.3h1V0l-12.9 2.6c-3.7-1.7-7.9-2.6-13-2.6-12.4 0-25.2 10.7-25.2 24.6 0 35.2 49.7 21.5 49.7 49 .1 9.3-9.1 18.3-22.9 18.3M53.9 36.6c0-3.2-2.8-6-6-6-.7 0-1.4.2-2.1.4 2.6-2.9 6.2-4.7 10.1-4.7 7.6 0 11 5.1 11 13.1 0 9.6-6.4 24.1-16 35.2L38.5 89.2h.1l-.1.1v.9h41.2V69.4h-.6c0 8.9-1.8 12.3-9.5 12.3H46.1l6-6.7c14-15.7 25.6-23.1 25.6-34.7 0-9.4-9.6-14.7-19.2-14.7-6.7 0-16.4 4.2-16.4 11 0 3.1 2.8 5.9 5.9 5.9 3.2 0 5.9-2.8 5.9-5.9M0 33.2h8.9v56.3H0v.6h28.2v-.6h-8.9V25.8h-.8l-9.3 6.8H0v.6z"/></svg><svg id="FinnFlare" data-name="Слой 1" viewBox="0 0 315.22 46.53" xmlns="http://www.w3.org/2000/svg"><defs><style>.bcls-1{fill:#000}</style></defs><path class="bcls-1" d="M298.56 39.91V26.79h12.94v-6h-12.92V6.58h16V.47h-22.74v45.7h18.31c2.76 0 5.07-3 5.07-6.26zM78.22 35.7h-.11s-1.92-3.42-2.87-4.92c-3.42-5.37-8.79-13.89-14.46-22.89-2.93-4.64-6-7.4-9.89-7.55v45.72h6.55V14.54h.17s1.47 2.94 2.68 4.87C63.86 25.08 68.78 33 73.88 41c2.84 4.47 6.43 5.38 10.65 5.43V.69h-6.31zm203.22 4.9a61.87 61.87 0 012.95 5.66h-6.8c-.86-1.62-1.94-3.61-2.95-5.27s-2-3.25-3.07-4.77-2.05-2.93-3.06-4.25c-.56-.73-1.08-1.4-1.57-2a48.7 48.7 0 01-6.21.66V46h-6.39V30.7H245l-2.38-6.36h11.68V2.23A32.53 32.53 0 01263.83 0a20.47 20.47 0 0112 2.81A13.7 13.7 0 01282.34 14a13.71 13.71 0 01-3.65 10.49 16.75 16.75 0 01-5.69 3.79l1.88 2.43c1.05 1.39 2.13 2.92 3.25 4.61s2.21 3.44 3.31 5.28zm-6.82-20.5a7.41 7.41 0 001.89-5.8 7.24 7.24 0 00-3.59-6.08C269.87 6.29 265 5.85 260.73 7v17.27c6.53-.33 11.58-1.75 13.89-4.17zM31.77 41.46c0 2.76 3.38 5.07 6.71 5.07V.69h-6.71zM0 41.46c0 2.76 3.49 5.07 6.72 5.07V26.79h12.95v-6H6.74V6.58h16V.7H0v40.76zM225.65 2.14a14.42 14.42 0 00-2.5 4.51c-1.11 3.2-4.88 14.65-4.92 14.77l-1.62 5.38a23.07 23.07 0 017.85-4.47l2.21-7.33C230.19 24 239 46.3 239 46.3l7-.13L228.19.36a6.35 6.35 0 00-2.54 1.78zm-35.2 37.77V.47h-6.92v45.7h17.85c2.76 0 5.08-3 5.08-6.26zM129.81.69h-6.34v35h-.11s-1.91-3.42-2.87-4.92c-3.41-5.37-8.78-13.89-14.45-22.89-2.93-4.64-5.93-7.4-9.86-7.55v45.72h6.55V14.53h.16s1.48 2.94 2.69 4.87C109.11 25.08 114 33 119.14 41c2.83 4.47 6.42 5.38 10.64 5.43zm42.76 20.1h-12.94V6.58h16V.7h-22.7v40.75c0 2.77 3.49 5.08 6.71 5.08V26.79h12.94zm38 25.56H217c0-3.37 3.15-13.46 13.23-14.78l-2.36-6c-12.87 2.51-17.26 15.29-17.26 20.78z"/></svg><svg id="FrenchConnection" data-name="Слой 1" viewBox="0 0 340.86 63.48" xmlns="http://www.w3.org/2000/svg"><defs><style>.ccls-1{fill:#000}</style></defs><path class="ccls-1" d="M67.98.27h23.13v2.68H71.27v7.74h19.07v2.68H71.27v11.17h-3.29V.27zM118.12 12.27c3.65 0 5.19-1 5.19-3.52V6.54c0-2.72-1.17-3.59-6-3.59h-15v9.32zm-19-12h19.41c7 0 8.11 2.31 8.11 6.87v2c0 3.42-1.95 4.35-4.46 4.59v.07c3.35.6 4.15 2.34 4.15 4.56v6.2h-3.08v-5.35c0-3.79-1.84-4.26-4.82-4.26h-16v9.59h-3.35V.27zM135.54.27h23.83v2.68h-20.55v7.74h19.74v2.68h-19.74v8.49h20.68v2.68h-23.96V.27zM167.47.27h4.89l22.23 21.32V.27h3.28v24.27h-4.89L170.75 3.22v21.32h-3.28V.27zM206.65 9.08c0-6.08 2.08-9.08 8.64-9.08h12.57c6 0 7.61 2.78 7.61 6v2.11h-2.88V7c0-4.13-2.55-4.33-5.56-4.33h-11.4c-3.15 0-5.7.94-5.7 5.16V17c0 4.23 2.55 5.16 5.7 5.16h11.5c4.42 0 5.69-.93 5.69-4.22v-1.55h3.09V18c0 4.4-1.41 6.78-8.21 6.78h-12.41c-6.56 0-8.64-2.95-8.64-9.09V9.08zM244.38.27h3.29v10.42h21.92V.27h3.28v24.27h-3.28V13.37h-21.92v11.17h-3.29V.27zM0 47.76c0-6.13 2.08-9.08 8.65-9.08h12.57c6 0 7.61 2.78 7.61 6v2.08h-2.89v-1.08c0-4.12-2.54-4.32-5.56-4.32H9c-3.15 0-5.7.94-5.7 5.16v9.12c0 4.22 2.55 5.16 5.7 5.16h11.5c4.42 0 5.7-.94 5.7-4.22v-1.51h3.08v1.64c0 4.4-1.41 6.77-8.21 6.77H8.65C2.08 63.48 0 60.54 0 54.4v-6.64zM65.09 46.52c0-4.22-2.55-5.16-5.7-5.16H46.08c-3.15 0-5.7.94-5.7 5.16v9.12c0 4.22 2.55 5.16 5.7 5.16h13.31c3.15 0 5.7-.94 5.7-5.16v-9.12zm-28 1.24c0-6.13 2.08-9.08 8.65-9.08h14c6.58 0 8.65 3 8.65 9.08v6.64c0 6.14-2.07 9.08-8.65 9.08h-14c-6.57 0-8.65-2.94-8.65-9.08v-6.64zM77.15 38.95h4.89l22.22 21.32V38.95h3.29v24.27h-4.89L80.43 41.9v21.32h-3.28V38.95zM116.76 38.95h4.9l22.22 21.32V38.95h3.28v24.27h-4.89L120.05 41.9v21.32h-3.29V38.95zM156.57 38.95h23.84v2.68h-20.55v7.74h19.74v2.68h-19.74v8.49h20.68v2.68h-23.97V38.95zM188.07 47.76c0-6.13 2.08-9.08 8.65-9.08h12.57c6 0 7.61 2.78 7.61 6v2.08H214v-1.08c0-4.12-2.54-4.32-5.56-4.32h-11.4c-3.15 0-5.69.94-5.69 5.16v9.12c0 4.22 2.54 5.16 5.69 5.16h11.5c4.42 0 5.7-.94 5.7-4.22v-1.51h3.08v1.64c0 4.4-1.41 6.77-8.21 6.77h-12.4c-6.57 0-8.65-2.94-8.65-9.08v-6.64zM235.43 41.63h-12.27v-2.68h27.82v2.68h-12.27v21.59h-3.28V41.63zM258.04 38.95h3.29v24.27h-3.29V38.95zM298.4 46.52c0-4.22-2.55-5.16-5.7-5.16h-13.31c-3.15 0-5.7.94-5.7 5.16v9.12c0 4.22 2.55 5.16 5.7 5.16h13.31c3.15 0 5.7-.94 5.7-5.16v-9.12zm-28 1.24c0-6.13 2.08-9.08 8.64-9.08h14c6.57 0 8.65 3 8.65 9.08v6.64c0 6.14-2.08 9.08-8.65 9.08h-14c-6.56 0-8.64-2.94-8.64-9.08v-6.64zM310.45 38.95h4.9l22.22 21.32V38.95h3.29v24.27h-4.9L313.74 41.9v21.32h-3.29V38.95z"/></svg><svg id="KarenMillen" data-name="Слой 1" viewBox="0 0 440 48.88" xmlns="http://www.w3.org/2000/svg"><defs><style>.dcls-1{fill:#000}</style></defs><path class="dcls-1" d="M29.54 3.35H23.3L5.57 23.76h-.06V3.35H0v42.84h5.51V25.83h.06l17.59 20.36h7.12l-19.07-21.9L29.54 3.35zM260.81 3.35l-11.48 23.47c-1.88 3.75-3.9 7.86-5.37 11.49h-.14c-1.54-3.63-3.76-7.93-5.5-11.43L226.77 3.36h-3.49L219.7 46.2h4.92l1.74-20.75c.27-2.89.54-6.85.67-10.35h.14c1.55 3.43 3.43 8 5 11l11.68 22.73L255 26.15c1.55-3.09 3.7-7.89 5.11-11.18h.13c.13 3.36.4 7.25.68 10.48l1.74 20.75h5.24l-3.6-42.84h-3.49zM33.6 46.18H39l4.7-11.54h17.4l4.8 11.54h5.57L52.53 0zm25.61-15.89H45.59l4.69-11.82a57.38 57.38 0 002.08-6h.13c.61 2 1.35 4.32 2 6zM103.33 15.16c0-7.72-6.44-11.82-12.75-11.82H78.23v42.84h5.43V27h5.84l13.83 19.2h6.85L95.35 26.1a11.24 11.24 0 008-10.94m-19.69 7.25V8.11h6c4.31 0 8.07 2.55 8.07 7.19s-3.77 7.11-8 7.11zM123.41 27.06h14.3v-4.77h-14.3V8.12h17.19V3.35h-22.7v42.84h25.11v-4.76h-19.6V27.06zM280.17 3.35h5.55v42.84h-5.55zM305.99 3.35h-5.51v42.83h24.91v-4.77h-19.4V3.35zM339.19 3.35h-5.51v42.83h24.91v-4.77h-19.4V3.35zM372.31 27.05h14.3v-4.77h-14.3V8.11h17.19V3.34h-22.7v42.84h25.11v-4.76h-19.6V27.05zM434.5 3.33v21.52c0 3.35 0 7.11.13 10.66l-.13.07c-2.75-3.42-6.64-7.84-9.32-10.86L406.07 3.33h-3.82v42.78h5.49V23.58c0-3.56 0-7.38-.13-11.27l.13-.07c3 3.56 6.78 8 10.13 11.81L440 48.69V3.33zM184.23 3.33v21.52c0 3.35 0 7.11.13 10.66l-.13.07c-2.75-3.42-6.64-7.84-9.32-10.86L155.8 3.33H152v42.78h5.49V23.58c0-3.56 0-7.38-.13-11.27l.13-.07c2.95 3.56 6.78 8 10.13 11.81l22.13 24.64V3.33z"/></svg><svg version="1.1" id="MintVelvet" x="0" y="0" viewBox="0 0 426.8 141" xml:space="preserve" xmlns="http://www.w3.org/2000/svg"><style>.est0{fill:#444}</style><path class="est0" d="M341.2 113.8h-23.4v18.3h25.1v7.4h-33.8V81.1h33v7.6h-24.3v17.6h23.4v7.5zM121.7 106.1v7.6H98.1v18.4h25c.1 2.7.3 4.7.4 7.3H89.6V81.1h33.1v7.3H98.1v17.7h23.6zM25.6 140.3C17.2 120.8 8.8 101.4 0 81.1c3.2-.2 5.5-.3 8.4-.5C14.2 94 20 107.2 25.7 120.4c.4.1.8.2 1.3.3 5.8-13.3 11.5-26.5 17.3-39.8h8.4c-8.5 20.2-16.8 39.8-25.1 59.4h-2zM245.7 141c-8.7-20.2-17.1-39.7-25.9-59.8h8.5c5.7 13 11.4 26.2 17.2 39.4h1.3c5.7-13.2 11.4-26.4 17.2-39.6h6.8c.7 3.2-20.3 54.3-25.1 60zM426.8 81.1v7.5h-20.3v50.9h-8.7V88.4h-20.1v-7.3h49.1zM162.6 139.5V81.2h8.1v51h26.8v7.3h-34.9z"/><g><path class="est0" d="M67.4.6c1.1-.2 1.9-.5 2.7-.5 1.6-.1 3.3 0 5 0 6.6 8 13 15.7 19.9 24.1 6.8-8.3 13.2-16 19.7-23.9h7.5v58.6h-7.7V15.1c-.5-.2-.9-.3-1.4-.5-5.9 7.2-11.8 14.4-18.2 22.3-6.3-7.8-12-14.9-17.8-22.1-.4.1-.8.2-1.2.4v43.5h-8.6c.1-19.5.1-38.8.1-58.1zM217.2.2h6.6c12.9 14.5 25.9 29.3 39 44.1.4-.1.7-.2 1.1-.4V.4h7.8v58.3c-2.3.1-4.5.3-6.9.5-13-14.8-25.9-29.5-38.8-44.2l-.9.3v43.3h-7.8c-.1-19.5-.1-38.7-.1-58.4zM339.1 58.9h-8.3v-51h-20.5c-.1-2.8-.3-4.9-.4-7.4h49.4v7.2H339c.1 17.5.1 34 .1 51.2zM165.9 58.7V.4h7.7v58.3h-7.7z"/></g></svg><svg id="Nike" data-name="Слой 1" viewBox="0 0 198.8 69.68" xmlns="http://www.w3.org/2000/svg"><defs><clipPath id="fclip-path"><path class="fcls-1" d="M0 0h198.8v69.68H0z"/></clipPath><style>.fcls-1{fill:none}.fcls-2{clip-path:url(#fclip-path)}.fcls-3{fill:#000}</style></defs><g class="fcls-2"><path class="fcls-3" d="M9.13 23.49C.68 36.46-2.94 50.68 2.76 59.81 13 76.25 37.63 68.66 53.3 62L198.8.64 55 38.61c-12 3.13-21.69 2.72-27.22-1.27C13.64 27 24.46 6.2 28.29 0 21.37 7.61 14.47 15.19 9.13 23.49"/></g></svg></svg>